<?xml version="1.0" encoding="iso-8859-1"?>
<!-- Generator: Adobe Illustrator 19.0.0, SVG Export Plug-In . SVG Version: 6.00 Build 0)  -->
<svg version="1.1" id="Capa_1" xmlns="http://www.w3.org/2000/svg" xmlns:xlink="http://www.w3.org/1999/xlink" x="0px" y="0px"
	 viewBox="0 0 469.333 469.333" style="enable-background:new 0 0 469.333 469.333;" xml:space="preserve">
<path style="fill:#303C42;" d="M355.063,171.396c5.042-13.896,7.604-28.427,7.604-43.396c0-70.583-57.417-128-128-128
	s-128,57.417-128,128c0,14.969,2.563,29.5,7.604,43.396C50.125,178.26,0,232.719,0,298.667c0,70.583,57.417,128,128,128
	c26.125,0,51.333-8.167,72.396-22.635C184.583,431.458,162.375,448,138.667,448c-5.896,0-10.667,4.771-10.667,10.667
	c0,5.896,4.771,10.667,10.667,10.667h192c5.896,0,10.667-4.771,10.667-10.667c0-5.896-4.771-10.667-10.667-10.667
	c-23.708,0-45.917-16.542-61.729-43.969c21.063,14.469,46.271,22.635,72.396,22.635c70.583,0,128-57.417,128-128
	C469.333,232.719,419.208,178.26,355.063,171.396z"/>
<path style="fill:#5C6671;" d="M277.563,448h-85.792c18.438-15.969,33.521-40.125,42.896-69.885
	C244.042,407.875,259.125,432.031,277.563,448z"/>
<linearGradient id="SVGID_1_" gradientUnits="userSpaceOnUse" x1="-57.3572" y1="605.1037" x2="-54.712" y2="602.4635" gradientTransform="matrix(21.3333 0 0 -21.3333 1430.1112 13315.2227)">
	<stop  offset="0" style="stop-color:#000000;stop-opacity:0.1"/>
	<stop  offset="1" style="stop-color:#000000;stop-opacity:0"/>
</linearGradient>
<path style="fill:url(#SVGID_1_);" d="M277.563,448h-85.792c18.438-15.969,33.521-40.125,42.896-69.885
	C244.042,407.875,259.125,432.031,277.563,448z"/>
<path style="fill:#5C6671;" d="M341.333,405.333c-37.438,0-72.604-20.125-91.771-52.521c-1.979-3.323-5.521-5.229-9.188-5.229
	c-1.313,0-2.646,0.24-3.938,0.75c-0.625,0.25-1.208,0.552-1.771,0.906c-0.563-0.354-1.146-0.656-1.771-0.906
	c-4.917-1.938-10.438-0.042-13.125,4.479c-19.167,32.396-54.333,52.521-91.771,52.521c-58.813,0-106.667-47.854-106.667-106.667
	S69.188,192,127.958,192c0.063,0,2.146,0.115,2.188,0.115c4.042,0.417,7.25-1.865,9.208-5.042c1.979-3.188,2.146-7.167,0.438-10.49
	C131.958,161.344,128,144.99,128,128c0-58.813,47.854-106.667,106.667-106.667S341.333,69.188,341.333,128
	c0,16.99-3.958,33.344-11.792,48.583c-1.708,3.323-1.542,7.302,0.438,10.49c1.958,3.177,5.417,5.281,9.208,5.042
	c0.042,0,2.042-0.104,2.167-0.115C400.167,192.01,448,239.854,448,298.667S400.146,405.333,341.333,405.333z"/>
<path style="opacity:0.1;enable-background:new    ;" d="M435.219,249.115c0.035,1.132,0.337,2.189,0.337,3.329
	c0,58.813-47.854,106.667-106.667,106.667c-37.438,0-72.604-20.125-91.771-52.521c-1.979-3.323-8.099-7.171-13.871-7.171
	c-4.315,0-13.233,2.65-15.921,7.171c-19.167,32.396-54.333,52.521-91.771,52.521c-40.836,0-75.967-23.331-93.887-57.122
	C23.471,359.234,70.326,405.333,128,405.333c37.438,0,72.604-20.125,91.771-52.521c2.688-4.521,8.208-6.417,13.125-4.479
	c0.625,0.25,1.208,0.552,1.771,0.906c0.563-0.354,1.146-0.656,1.771-0.906c1.292-0.51,2.625-0.75,3.938-0.75
	c3.667,0,7.208,1.906,9.188,5.229c19.167,32.396,54.333,52.521,91.771,52.521c58.813,0,106.667-47.854,106.667-106.667
	C448,280.686,443.107,263.991,435.219,249.115z"/>
<linearGradient id="SVGID_2_" gradientUnits="userSpaceOnUse" x1="-64.7253" y1="616.4373" x2="-45.6357" y2="607.5364" gradientTransform="matrix(21.3333 0 0 -21.3333 1430.1112 13315.2227)">
	<stop  offset="0" style="stop-color:#FFFFFF;stop-opacity:0.2"/>
	<stop  offset="1" style="stop-color:#FFFFFF;stop-opacity:0"/>
</linearGradient>
<path style="fill:url(#SVGID_2_);" d="M355.063,171.396c5.042-13.896,7.604-28.427,7.604-43.396c0-70.583-57.417-128-128-128
	s-128,57.417-128,128c0,14.969,2.563,29.5,7.604,43.396C50.125,178.26,0,232.719,0,298.667c0,70.583,57.417,128,128,128
	c26.125,0,51.333-8.167,72.396-22.635C184.583,431.458,162.375,448,138.667,448c-5.896,0-10.667,4.771-10.667,10.667
	c0,5.896,4.771,10.667,10.667,10.667h192c5.896,0,10.667-4.771,10.667-10.667c0-5.896-4.771-10.667-10.667-10.667
	c-23.708,0-45.917-16.542-61.729-43.969c21.063,14.469,46.271,22.635,72.396,22.635c70.583,0,128-57.417,128-128
	C469.333,232.719,419.208,178.26,355.063,171.396z"/>
<g>
</g>
<g>
</g>
<g>
</g>
<g>
</g>
<g>
</g>
<g>
</g>
<g>
</g>
<g>
</g>
<g>
</g>
<g>
</g>
<g>
</g>
<g>
</g>
<g>
</g>
<g>
</g>
<g>
</g>
</svg>
