<?xml version="1.0" encoding="iso-8859-1"?>
<!-- Generator: Adobe Illustrator 19.0.0, SVG Export Plug-In . SVG Version: 6.00 Build 0)  -->
<svg version="1.1" id="Capa_1" xmlns="http://www.w3.org/2000/svg" xmlns:xlink="http://www.w3.org/1999/xlink" x="0px" y="0px"
	 viewBox="0 0 469.333 469.333" style="enable-background:new 0 0 469.333 469.333;" xml:space="preserve">
<path style="fill:#303C42;" d="M234.667,469.333c-4.228,0-8.044-2.545-9.714-6.477C166.397,324.655,48.545,244.066,47.369,243.263
	c-2.929-1.982-4.703-5.309-4.703-8.886c0-3.567,1.774-6.904,4.703-8.886c1.176-0.793,119.131-81.642,177.583-219.593
	c3.341-7.864,16.088-7.864,19.429,0c58.555,138.201,176.407,218.79,177.583,219.593c2.929,1.982,4.703,5.309,4.703,8.886
	c0,3.567-1.774,6.904-4.703,8.886c-1.176,0.793-119.131,81.642-177.583,219.593C242.71,466.789,238.895,469.333,234.667,469.333z"/>
<path style="fill:#EF5350;" d="M71.294,234.377c30.773,23.446,111.912,92.113,163.372,198.651
	c51.46-106.537,132.599-175.205,163.372-198.651c-30.773-23.446-111.912-92.113-163.372-198.651
	C183.207,142.264,102.067,210.932,71.294,234.377z"/>
<path style="opacity:0.1;enable-background:new    ;" d="M234.667,35.727c30.798,106.536,79.361,175.204,97.777,198.65
	c-18.417,23.447-66.979,92.115-97.777,198.651c51.46-106.536,132.599-175.204,163.372-198.651
	C367.266,210.931,286.126,142.263,234.667,35.727z"/>
<path style="opacity:0.2;fill:#FFFFFF;enable-background:new    ;" d="M234.667,35.727
	c-51.46,106.536-132.599,175.204-163.372,198.65c30.773,23.447,111.913,92.115,163.372,198.651
	c-30.798-106.536-79.361-175.204-97.777-198.651C155.306,210.931,203.868,142.263,234.667,35.727z"/>
<linearGradient id="SVGID_1_" gradientUnits="userSpaceOnUse" x1="-63.4754" y1="616.6239" x2="-48.6051" y2="609.6892" gradientTransform="matrix(21.3333 0 0 -21.3333 1430.1112 13315.2227)">
	<stop  offset="0" style="stop-color:#FFFFFF;stop-opacity:0.2"/>
	<stop  offset="1" style="stop-color:#FFFFFF;stop-opacity:0"/>
</linearGradient>
<path style="fill:url(#SVGID_1_);" d="M234.667,469.333c-4.228,0-8.044-2.545-9.714-6.477
	C166.397,324.655,48.545,244.066,47.369,243.263c-2.929-1.982-4.703-5.309-4.703-8.886c0-3.567,1.774-6.904,4.703-8.886
	c1.176-0.793,119.131-81.642,177.583-219.593c3.341-7.864,16.088-7.864,19.429,0c58.555,138.201,176.407,218.79,177.583,219.593
	c2.929,1.982,4.703,5.309,4.703,8.886c0,3.567-1.774,6.904-4.703,8.886c-1.176,0.793-119.131,81.642-177.583,219.593
	C242.71,466.789,238.895,469.333,234.667,469.333z"/>
<g>
</g>
<g>
</g>
<g>
</g>
<g>
</g>
<g>
</g>
<g>
</g>
<g>
</g>
<g>
</g>
<g>
</g>
<g>
</g>
<g>
</g>
<g>
</g>
<g>
</g>
<g>
</g>
<g>
</g>
</svg>
