<?xml version="1.0" encoding="iso-8859-1"?>
<!-- Generator: Adobe Illustrator 19.0.0, SVG Export Plug-In . SVG Version: 6.00 Build 0)  -->
<svg version="1.1" id="Capa_1" xmlns="http://www.w3.org/2000/svg" xmlns:xlink="http://www.w3.org/1999/xlink" x="0px" y="0px"
	 viewBox="0 0 469.333 469.333" style="enable-background:new 0 0 469.333 469.333;" xml:space="preserve">
<path style="fill:#303C42;" d="M234.667,448c-2.729,0-5.458-1.042-7.542-3.125L51.667,269.417C18.354,236.104,0,191.802,0,144.677
	C0,76.667,55.333,21.333,123.354,21.333c39.75,0,77.271,19.313,100.375,51.656l10.938,15.323l10.938-15.323
	c23.104-32.344,60.625-51.656,100.375-51.656c68.021,0,123.354,55.333,123.354,123.344c0,47.125-18.354,91.427-51.667,124.74
	L242.208,444.875C240.125,446.958,237.396,448,234.667,448z"/>
<path style="fill:#EF5350;" d="M123.354,42.667c-56.25,0-102.021,45.76-102.021,102.01c0,41.427,16.125,80.365,45.417,109.656
	L234.667,422.25l167.917-167.917C431.875,225.042,448,186.104,448,144.677c0-56.25-45.771-102.01-102.021-102.01
	c-32.875,0-63.917,15.969-83,42.719l-19.625,27.479c-4,5.604-13.375,5.604-17.375,0l-19.625-27.479
	C187.271,58.635,156.229,42.667,123.354,42.667z"/>
<path style="opacity:0.1;enable-background:new    ;" d="M345.979,42.667c-8.646,0-17.145,1.168-25.353,3.283
	c28.145,11.014,49.151,50.935,49.151,98.728c0,41.427-10.212,80.365-28.763,109.656L234.667,422.25l167.917-167.917
	C431.875,225.042,448,186.104,448,144.677C448,88.427,402.229,42.667,345.979,42.667z"/>
<path style="opacity:0.2;fill:#FFFFFF;enable-background:new    ;" d="M99.556,144.677c0-47.794,21.007-87.715,49.151-98.728
	c-8.208-2.115-16.707-3.283-25.353-3.283c-56.25,0-102.021,45.76-102.021,102.01c0,41.427,16.125,80.365,45.417,109.656
	L234.667,422.25L128.319,254.333C109.768,225.042,99.556,186.104,99.556,144.677z"/>
<linearGradient id="SVGID_1_" gradientUnits="userSpaceOnUse" x1="-66.6075" y1="619.5703" x2="-47.3403" y2="610.5852" gradientTransform="matrix(21.3333 0 0 -21.3333 1430.1112 13315.2227)">
	<stop  offset="0" style="stop-color:#FFFFFF;stop-opacity:0.2"/>
	<stop  offset="1" style="stop-color:#FFFFFF;stop-opacity:0"/>
</linearGradient>
<path style="fill:url(#SVGID_1_);" d="M234.667,448c-2.729,0-5.458-1.042-7.542-3.125L51.667,269.417
	C18.354,236.104,0,191.802,0,144.677C0,76.667,55.333,21.333,123.354,21.333c39.75,0,77.271,19.313,100.375,51.656l10.938,15.323
	l10.938-15.323c23.104-32.344,60.625-51.656,100.375-51.656c68.021,0,123.354,55.333,123.354,123.344
	c0,47.125-18.354,91.427-51.667,124.74L242.208,444.875C240.125,446.958,237.396,448,234.667,448z"/>
<g>
</g>
<g>
</g>
<g>
</g>
<g>
</g>
<g>
</g>
<g>
</g>
<g>
</g>
<g>
</g>
<g>
</g>
<g>
</g>
<g>
</g>
<g>
</g>
<g>
</g>
<g>
</g>
<g>
</g>
</svg>
