<svg height="423pt" viewBox="0 -14 423.25333 423" width="423pt" xmlns="http://www.w3.org/2000/svg"><path d="m416.425781 129.832031c0 33.933594-27.507812 61.441407-61.4375 61.441407-33.933593 0-61.441406-27.507813-61.441406-61.441407 0-33.929687 27.507813-61.4375 61.441406-61.4375 33.929688 0 61.4375 27.507813 61.4375 61.4375zm0 0" fill="#ffd578"/><path d="m416.425781 129.832031h6.828125c-.003906-37.707031-30.558594-68.261719-68.265625-68.265625-37.707031.003906-68.265625 30.558594-68.269531 68.265625.003906 37.707031 30.5625 68.261719 68.269531 68.269531 37.703125-.003906 68.261719-30.5625 68.265625-68.269531h-13.652344c-.003906 15.105469-6.101562 28.714844-16 38.617188-9.902343 9.894531-23.511718 15.992187-38.613281 15.996093-15.105469-.003906-28.714843-6.101562-38.621093-15.996093-9.890626-9.902344-15.992188-23.511719-15.996094-38.617188.003906-15.101562 6.101562-28.714843 15.996094-38.617187 9.90625-9.894532 23.515624-15.992188 38.621093-15.996094 15.101563.003906 28.710938 6.105469 38.613281 15.996094 9.894532 9.90625 15.992188 23.515625 16 38.621094h6.824219zm0 0" fill="#54596e"/><path d="m129.707031 129.832031c0 33.933594-27.507812 61.441407-61.441406 61.441407-33.929687 0-61.4375-27.507813-61.4375-61.441407 0-33.929687 27.507813-61.4375 61.4375-61.4375 33.933594 0 61.441406 27.507813 61.441406 61.4375zm0 0" fill="#ffd578"/><path d="m129.707031 129.832031h6.828125c-.003906-37.707031-30.5625-68.261719-68.269531-68.265625-37.707031.003906-68.26171875 30.558594-68.265625 68.265625.00390625 37.707031 30.558594 68.261719 68.265625 68.269531 37.707031-.003906 68.261719-30.5625 68.269531-68.269531h-13.65625c-.003906 15.105469-6.101562 28.714844-15.996094 38.617188-9.902343 9.894531-23.515624 15.992187-38.617187 15.996093-15.101563-.003906-28.710937-6.101562-38.617187-15.996093-9.894532-9.902344-15.992188-23.511719-15.996094-38.617188.003906-15.101562 6.101562-28.714843 15.996094-38.617187 9.90625-9.894532 23.515624-15.992188 38.617187-15.996094 15.101563.003906 28.714844 6.105469 38.617187 15.996094 9.894532 9.90625 15.992188 23.515625 15.996094 38.617187zm0 0" fill="#54596e"/><path d="m232.105469 6.953125h-40.957031c-71.636719 0-129.707032 58.070313-129.707032 129.707031v88.746094c0 82.949219 67.238282 150.1875 150.183594 150.1875 82.949219 0 150.1875-67.238281 150.1875-150.1875v-88.746094c0-71.636718-58.070312-129.707031-129.707031-129.707031zm0 0" fill="#bfad88"/><path d="m232.105469 6.953125v-6.828125h-40.957031c-75.40625.003906-136.53125 61.125-136.535157 136.535156v88.746094c.003907 86.71875 70.292969 157.007812 157.011719 157.015625 86.722656-.003906 157.011719-70.296875 157.015625-157.015625v-88.746094c-.003906-75.410156-61.128906-136.53125-136.535156-136.535156v13.65625c33.953125.003906 64.632812 13.742188 86.890625 35.988281 22.246094 22.257813 35.988281 52.9375 35.992187 86.890625v88.746094c-.003906 39.609375-16.039062 75.40625-41.992187 101.371094-25.964844 25.953125-61.757813 41.984375-101.371094 41.988281-39.609375-.003906-75.40625-16.035156-101.371094-41.988281-25.953125-25.964844-41.984375-61.761719-41.988281-101.371094v-88.746094c.003906-33.957031 13.746094-64.632812 35.992187-86.890625 22.257813-22.246093 52.9375-35.984375 86.890626-35.988281h40.957031zm0 0" fill="#54596e"/><path d="m287.417969 214.855469c15.664062-6.855469 26.609375-22.464844 26.609375-40.648438 0-24.507812-19.867188-44.375-44.375-44.375-21.464844 0-39.371094 15.246094-43.480469 35.5-4.730469-.847656-9.570313-1.367187-14.546875-1.367187-4.972656 0-9.8125.519531-14.542969 1.367187-4.109375-20.253906-22.015625-35.5-43.480469-35.5-24.507812 0-44.375 19.867188-44.375 44.375 0 18.183594 10.945313 33.792969 26.605469 40.644531-.726562 1.777344-1.332031 3.609376-1.9375 5.445313-15.339843 17.90625-24.667969 41.121094-24.667969 66.550781 0 56.554688 45.847657 102.398438 102.398438 102.398438 56.554688 0 102.402344-45.84375 102.402344-102.398438 0-25.429687-9.328125-48.644531-24.667969-66.550781-.605469-1.832031-1.210937-3.664063-1.941406-5.441406zm0 0" fill="#ffd578"/><g fill="#54596e"><path d="m287.417969 214.855469 2.738281 6.253906c18.0625-7.894531 30.691406-25.921875 30.695312-46.902344 0-28.277343-22.917968-51.195312-51.199218-51.199219-24.769532.015626-45.425782 17.570313-50.167969 40.96875l6.6875 1.355469 1.203125-6.722656c-5.050781-.902344-10.300781-1.46875-15.75-1.46875s-10.695312.566406-15.75 1.46875l1.203125 6.722656 6.6875-1.355469c-4.738281-23.398437-25.394531-40.953124-50.164063-40.96875-28.28125.003907-51.199218 22.917969-51.203124 51.199219.007812 20.980469 12.632812 39.003907 30.699218 46.898438l2.734375-6.253907-6.316406-2.585937c-.84375 2.070313-1.496094 4.050781-2.101563 5.882813l6.480469 2.148437-5.183593-4.445313c-16.347657 19.074219-26.3125 43.882813-26.3125 70.996094.003906 60.324219 48.902343 109.21875 109.226562 109.226563 60.328125-.003907 109.222656-48.898438 109.226562-109.226563.003907-27.113281-9.960937-51.921875-26.304687-70.992187l-5.1875 4.441406 6.480469-2.144531c-.605469-1.832032-1.257813-3.816406-2.101563-5.882813l-6.320312 2.585938 2.738281 6.253906-2.738281-6.253906-6.316407 2.582031c.609376 1.484375 1.171876 3.171875 1.777344 5.003906.285156.863282.707032 1.605469 1.296875 2.296875 14.335938 16.746094 23.023438 38.363281 23.027344 62.109375-.003906 26.414063-10.6875 50.265625-27.996094 67.582032-17.316406 17.304687-41.164062 27.988281-67.578125 27.992187-26.414062-.003906-50.261718-10.6875-67.582031-27.992187-17.304687-17.320313-27.988281-41.171876-27.992187-67.582032.003906-23.746094 8.6875-45.367187 23.023437-62.109375.589844-.691406 1.011719-1.4375 1.296875-2.296875.605469-1.832031 1.167969-3.519531 1.777344-5.003906 1.402344-3.433594-.183594-7.351562-3.582032-8.839844-13.257812-5.8125-22.523437-19.003906-22.515624-34.390625.003906-10.390625 4.191406-19.734375 10.996093-26.550781 6.816407-6.804688 16.160157-10.992188 26.550781-10.996094 18.160157-.015625 33.316407 12.914063 36.789063 30.023438.734375 3.636718 4.242187 6.019531 7.890625 5.367187 4.414062-.792969 8.847656-1.257812 13.34375-1.257812 4.5 0 8.933594.464843 13.347656 1.257812 3.648438.652344 7.15625-1.730469 7.890625-5.367187 3.472657-17.109375 18.628907-30.039063 36.789063-30.023438 10.390625.003906 19.734375 4.191406 26.550781 10.996094 6.804687 6.816406 10.992187 16.160156 10.996094 26.550781.007812 15.386719-9.257813 28.582031-22.515625 34.394531-3.398438 1.484376-4.988282 5.40625-3.582032 8.839844zm0 0"/><path d="m163.839844 174.207031c0 5.65625-4.585938 10.238281-10.238282 10.238281-5.65625 0-10.242187-4.582031-10.242187-10.238281s4.585937-10.242187 10.242187-10.242187c5.652344 0 10.238282 4.585937 10.238282 10.242187zm0 0"/><path d="m279.894531 174.207031c0 5.65625-4.585937 10.238281-10.242187 10.238281s-10.238282-4.582031-10.238282-10.238281 4.582032-10.242187 10.238282-10.242187 10.242187 4.585937 10.242187 10.242187zm0 0"/><path d="m204.800781 239.058594c0-7.539063-4.585937-13.652344-10.242187-13.652344-5.652344 0-10.238282 6.113281-10.238282 13.652344 0 7.542968 4.585938 13.65625 10.238282 13.65625 5.65625 0 10.242187-6.113282 10.242187-13.65625zm0 0"/><path d="m238.933594 239.058594c0-7.539063-4.585938-13.652344-10.242188-13.652344-5.652344 0-10.238281 6.113281-10.238281 13.652344 0 7.542968 4.585937 13.65625 10.238281 13.65625 5.65625 0 10.242188-6.113282 10.242188-13.65625zm0 0"/><path d="m170.667969 239.058594c.019531-11.304688 9.171875-20.457032 20.480469-20.480469h40.957031c11.308593.023437 20.460937 9.175781 20.480469 20.480469 0 3.769531 3.058593 6.828125 6.828124 6.828125 3.769532 0 6.824219-3.058594 6.824219-6.828125-.003906-18.851563-15.277343-34.128906-34.132812-34.132813h-40.957031c-18.855469.003907-34.128907 15.28125-34.136719 34.132813 0 3.769531 3.058593 6.828125 6.828125 6.828125 3.769531 0 6.828125-3.058594 6.828125-6.828125zm0 0"/><path d="m197.972656 174.207031c0 24.507813-19.867187 44.371094-44.371094 44.371094-24.507812 0-44.375-19.863281-44.375-44.371094 0-24.507812 19.867188-44.375 44.375-44.375 24.503907 0 44.371094 19.867188 44.371094 44.375zm0 0"/><path d="m197.972656 174.207031h6.828125c-.003906-28.28125-22.921875-51.195312-51.199219-51.199219-28.28125.003907-51.199218 22.917969-51.203124 51.199219.003906 28.277344 22.921874 51.195313 51.203124 51.199219 28.277344-.003906 51.191407-22.921875 51.199219-51.199219h-13.652343c-.003907 10.386719-4.191407 19.730469-11 26.546875-6.816407 6.804688-16.160157 10.996094-26.546876 11-10.390624-.003906-19.734374-4.195312-26.550781-11-6.804687-6.816406-10.992187-16.15625-10.996093-26.546875.003906-10.390625 4.191406-19.734375 10.996093-26.550781 6.816407-6.804688 16.160157-10.992188 26.550781-10.996094 10.386719 0 19.730469 4.191406 26.546876 10.996094 6.808593 6.816406 10.996093 16.160156 11 26.550781zm0 0"/><path d="m314.027344 174.207031c0 24.507813-19.867188 44.371094-44.375 44.371094-24.503906 0-44.371094-19.863281-44.371094-44.371094 0-24.507812 19.867188-44.375 44.371094-44.375 24.507812 0 44.375 19.867188 44.375 44.375zm0 0"/><path d="m314.027344 174.207031h6.824218c0-28.28125-22.917968-51.195312-51.199218-51.199219-28.277344.003907-51.195313 22.917969-51.199219 51.199219.003906 28.277344 22.921875 51.195313 51.199219 51.199219 28.28125-.003906 51.195312-22.921875 51.199218-51.199219h-13.652343c-.003907 10.386719-4.191407 19.730469-10.996094 26.546875-6.816406 6.804688-16.160156 10.996094-26.550781 11-10.390625-.003906-19.730469-4.195312-26.546875-11-6.808594-6.816406-10.996094-16.160156-11-26.546875.003906-10.390625 4.191406-19.734375 11-26.550781 6.816406-6.804688 16.160156-10.992188 26.546875-10.996094 10.390625 0 19.734375 4.191406 26.550781 10.996094 6.804687 6.816406 10.992187 16.160156 10.996094 26.550781zm0 0"/><path d="m60.519531 150.25 150.183594 20.480469c.636719.085937 1.214844.085937 1.847656 0l150.1875-20.480469c3.734375-.511719 6.347657-3.949219 5.839844-7.683594-.511719-3.734375-3.949219-6.351562-7.683594-5.839844l-149.269531 20.351563-149.261719-20.355469c-3.738281-.511718-7.179687 2.105469-7.6875 5.84375-.507812 3.734375 2.105469 7.175782 5.84375 7.683594zm0 0"/></g><path d="m129.707031 143.488281v13.652344c0 3.769531 3.054688 6.824219 6.828125 6.824219 3.769532 0 6.824219-3.054688 6.824219-6.824219v-13.652344c0-3.773437-3.054687-6.828125-6.824219-6.828125-3.773437 0-6.828125 3.054688-6.828125 6.828125" fill="#55a6ff"/><path d="m129.707031 157.140625h13.652344c3.769531 0 6.828125-3.058594 6.828125-6.828125s-3.058594-6.824219-6.828125-6.824219h-13.652344c-3.769531 0-6.828125 3.054688-6.828125 6.824219s3.058594 6.828125 6.828125 6.828125" fill="#55a6ff"/><path d="m245.761719 143.488281v13.652344c0 3.769531 3.054687 6.824219 6.824219 6.824219 3.769531 0 6.828124-3.054688 6.828124-6.824219v-13.652344c0-3.773437-3.058593-6.828125-6.828124-6.828125-3.769532 0-6.824219 3.054688-6.824219 6.828125" fill="#55a6ff"/><path d="m245.761719 157.140625h13.652343c3.769532 0 6.824219-3.058594 6.824219-6.828125s-3.054687-6.824219-6.824219-6.824219h-13.652343c-3.773438 0-6.828125 3.054688-6.828125 6.824219s3.054687 6.828125 6.828125 6.828125" fill="#55a6ff"/><path d="m157.011719 320.980469h102.402343l13.652344-20.480469" fill="#ffd578"/><path d="m157.011719 327.808594h102.402343c2.28125 0 4.414063-1.140625 5.679688-3.042969l13.652344-20.480469c2.089844-3.136718 1.246094-7.375-1.890625-9.464844-3.136719-2.09375-7.378907-1.246093-9.46875 1.894532l-11.628907 17.4375h-98.746093c-3.769531 0-6.824219 3.058594-6.824219 6.828125s3.054688 6.828125 6.824219 6.828125zm0 0" fill="#54596e"/></svg>